<svg width="48" height="48" viewBox="0 0 48 48" fill="none" xmlns="http://www.w3.org/2000/svg">
<circle cx="24" cy="24" r="24" fill="white"/>
<path d="M37.428 34.0011H12.8566V11.7154C12.8566 11.5582 12.728 11.4297 12.5709 11.4297H10.5709C10.4137 11.4297 10.2852 11.5582 10.2852 11.7154V36.2868C10.2852 36.4439 10.4137 36.5725 10.5709 36.5725H37.428C37.5852 36.5725 37.7137 36.4439 37.7137 36.2868V34.2868C37.7137 34.1297 37.5852 34.0011 37.428 34.0011ZM15.9994 27.2868C15.9994 27.893 16.2403 28.4744 16.6689 28.903C17.0976 29.3317 17.6789 29.5725 18.2852 29.5725C18.8914 29.5725 19.4727 29.3317 19.9014 28.903C20.3301 28.4744 20.5709 27.893 20.5709 27.2868C20.5709 26.6806 20.3301 26.0992 19.9014 25.6706C19.4727 25.2419 18.8914 25.0011 18.2852 25.0011C17.6789 25.0011 17.0976 25.2419 16.6689 25.6706C16.2403 26.0992 15.9994 26.6806 15.9994 27.2868ZM20.2137 19.2868C20.2137 19.7415 20.3943 20.1775 20.7158 20.499C21.0373 20.8205 21.4734 21.0011 21.928 21.0011C22.3827 21.0011 22.8187 20.8205 23.1402 20.499C23.4617 20.1775 23.6423 19.7415 23.6423 19.2868C23.6423 18.8321 23.4617 18.3961 23.1402 18.0746C22.8187 17.7531 22.3827 17.5725 21.928 17.5725C21.4734 17.5725 21.0373 17.7531 20.7158 18.0746C20.3943 18.3961 20.2137 18.8321 20.2137 19.2868V19.2868ZM25.8566 27.4297C25.8566 28.339 26.2178 29.211 26.8608 29.854C27.5038 30.497 28.3758 30.8582 29.2852 30.8582C30.1945 30.8582 31.0665 30.497 31.7095 29.854C32.3525 29.211 32.7137 28.339 32.7137 27.4297C32.7137 26.5203 32.3525 25.6483 31.7095 25.0053C31.0665 24.3623 30.1945 24.0011 29.2852 24.0011C28.3758 24.0011 27.5038 24.3623 26.8608 25.0053C26.2178 25.6483 25.8566 26.5203 25.8566 27.4297V27.4297ZM31.1423 16.2154C31.1423 16.7458 31.353 17.2545 31.7281 17.6296C32.1032 18.0047 32.6119 18.2154 33.1423 18.2154C33.6727 18.2154 34.1814 18.0047 34.5565 17.6296C34.9316 17.2545 35.1423 16.7458 35.1423 16.2154C35.1423 15.6849 34.9316 15.1762 34.5565 14.8012C34.1814 14.4261 33.6727 14.2154 33.1423 14.2154C32.6119 14.2154 32.1032 14.4261 31.7281 14.8012C31.353 15.1762 31.1423 15.6849 31.1423 16.2154V16.2154Z" fill="#1B2455"/>
</svg>
