<svg width="48" height="48" viewBox="0 0 48 48" fill="none" xmlns="http://www.w3.org/2000/svg">
<circle cx="24" cy="24" r="24" fill="white"/>
<path d="M38.6794 15.8364C38.2007 14.7279 37.5104 13.7235 36.6473 12.8792C35.7835 12.0325 34.765 11.3596 33.6473 10.8971C32.4883 10.4156 31.2452 10.1692 29.9901 10.1721C28.2294 10.1721 26.5116 10.6542 25.0187 11.5649C24.6616 11.7828 24.3223 12.0221 24.0008 12.2828C23.6794 12.0221 23.3401 11.7828 22.983 11.5649C21.4901 10.6542 19.7723 10.1721 18.0116 10.1721C16.7437 10.1721 15.5151 10.4149 14.3544 10.8971C13.233 11.3614 12.2223 12.0292 11.3544 12.8792C10.4901 13.7225 9.79969 14.7272 9.32227 15.8364C8.82584 16.9899 8.57227 18.2149 8.57227 19.4757C8.57227 20.6649 8.81512 21.9042 9.29727 23.1649C9.70084 24.2185 10.2794 25.3114 11.0187 26.4149C12.1901 28.1614 13.8008 29.9828 15.8008 31.8292C19.1151 34.8899 22.3973 37.0042 22.5366 37.0899L23.383 37.6328C23.758 37.8721 24.2401 37.8721 24.6151 37.6328L25.4616 37.0899C25.6008 37.0007 28.8794 34.8899 32.1973 31.8292C34.1973 29.9828 35.808 28.1614 36.9794 26.4149C37.7187 25.3114 38.3008 24.2185 38.7008 23.1649C39.183 21.9042 39.4258 20.6649 39.4258 19.4757C39.4294 18.2149 39.1758 16.9899 38.6794 15.8364ZM24.0008 34.8078C24.0008 34.8078 11.2866 26.6614 11.2866 19.4757C11.2866 15.8364 14.2973 12.8864 18.0116 12.8864C20.6223 12.8864 22.8866 14.3435 24.0008 16.4721C25.1151 14.3435 27.3794 12.8864 29.9901 12.8864C33.7044 12.8864 36.7151 15.8364 36.7151 19.4757C36.7151 26.6614 24.0008 34.8078 24.0008 34.8078Z" fill="#1B2455"/>
</svg>
