<svg width="48" height="48" viewBox="0 0 48 48" fill="none" xmlns="http://www.w3.org/2000/svg">
<circle cx="24" cy="24" r="24" fill="white"/>
<g clip-path="url(#clip0_44_496)">
<rect width="24" height="24" transform="translate(12 12)" fill="white"/>
<path d="M26.2045 26.3924C26.7077 25.8393 26.9857 25.1179 26.9839 24.3701C26.9839 22.7121 25.6473 21.3701 24 21.3701C22.3527 21.3701 21.0161 22.7121 21.0161 24.3701C21.0161 25.1496 21.3107 25.8567 21.7955 26.3924C21.2146 26.7524 20.7295 27.2476 20.3815 27.8358C20.0336 28.424 19.8331 29.0876 19.7973 29.7701C19.7959 29.7991 19.8003 29.8282 19.8105 29.8554C19.8206 29.8826 19.8361 29.9076 19.8562 29.9286C19.8762 29.9496 19.9003 29.9664 19.9271 29.9778C19.9538 29.9893 19.9825 29.9951 20.0116 29.9951H21.1875C21.3 29.9951 21.3911 29.9067 21.3991 29.7942C21.5009 28.4389 22.6312 27.3701 24.0027 27.3701C25.3741 27.3701 26.5045 28.4415 26.6062 29.7942C26.6143 29.9067 26.7054 29.9951 26.8179 29.9951H27.9911C28.0201 29.9951 28.0489 29.9893 28.0756 29.9778C28.1023 29.9664 28.1265 29.9496 28.1465 29.9286C28.1666 29.9076 28.1821 29.8826 28.1922 29.8554C28.2023 29.8282 28.2068 29.7991 28.2054 29.7701C28.1304 28.3424 27.3482 27.0996 26.2045 26.3924ZM24 25.763C23.2366 25.763 22.6152 25.1389 22.6152 24.3701C22.6152 23.6014 23.2366 22.9772 24 22.9772C24.7634 22.9772 25.3848 23.6014 25.3848 24.3701C25.3848 25.1389 24.7634 25.763 24 25.763ZM35.1429 16.2808H30.8571V14.7808C30.8571 14.663 30.7607 14.5665 30.6429 14.5665H29.1429C29.025 14.5665 28.9286 14.663 28.9286 14.7808V16.2808H24.9643V14.7808C24.9643 14.663 24.8679 14.5665 24.75 14.5665H23.25C23.1321 14.5665 23.0357 14.663 23.0357 14.7808V16.2808H19.0714V14.7808C19.0714 14.663 18.975 14.5665 18.8571 14.5665H17.3571C17.2393 14.5665 17.1429 14.663 17.1429 14.7808V16.2808H12.8571C12.383 16.2808 12 16.6639 12 17.138V32.5665C12 33.0406 12.383 33.4237 12.8571 33.4237H35.1429C35.617 33.4237 36 33.0406 36 32.5665V17.138C36 16.6639 35.617 16.2808 35.1429 16.2808ZM34.0714 31.4951H13.9286V18.2094H17.1429V19.7094C17.1429 19.8272 17.2393 19.9237 17.3571 19.9237H18.8571C18.975 19.9237 19.0714 19.8272 19.0714 19.7094V18.2094H23.0357V19.7094C23.0357 19.8272 23.1321 19.9237 23.25 19.9237H24.75C24.8679 19.9237 24.9643 19.8272 24.9643 19.7094V18.2094H28.9286V19.7094C28.9286 19.8272 29.025 19.9237 29.1429 19.9237H30.6429C30.7607 19.9237 30.8571 19.8272 30.8571 19.7094V18.2094H34.0714V31.4951Z" fill="#1B2455"/>
</g>
<defs>
<clipPath id="clip0_44_496">
<rect width="24" height="24" fill="white" transform="translate(12 12)"/>
</clipPath>
</defs>
</svg>
