<svg width="48" height="48" viewBox="0 0 48 48" fill="none" xmlns="http://www.w3.org/2000/svg">
<circle cx="24" cy="24" r="24" fill="white"/>
<path d="M32.1431 11.4599C29.936 11.4599 28.1431 13.2528 28.1431 15.4599C28.1431 17.2492 29.3253 18.7671 30.9467 19.2778V22.7028L17.1431 27.2242V17.0707C18.7217 16.5349 19.8574 15.0385 19.8574 13.2814C19.8574 11.0742 18.0646 9.28137 15.8574 9.28137C13.6503 9.28137 11.8574 11.0742 11.8574 13.2814C11.8574 15.0385 12.9931 16.5314 14.5717 17.0707V30.9242C12.9931 31.4599 11.8574 32.9564 11.8574 34.7135C11.8574 36.9207 13.6503 38.7135 15.8574 38.7135C18.0646 38.7135 19.8574 36.9207 19.8574 34.7135C19.8574 32.9564 18.7217 31.4635 17.1431 30.9242V29.9314L32.2681 24.9778C32.6313 24.8597 32.9477 24.6294 33.1717 24.3201C33.3957 24.0107 33.5157 23.6383 33.5146 23.2564V19.2171C35.0467 18.6528 36.1431 17.1814 36.1431 15.4599C36.1431 13.2528 34.3503 11.4599 32.1431 11.4599ZM14.1431 13.2814C14.1523 12.8328 14.3369 12.4056 14.6574 12.0916C14.9779 11.7776 15.4087 11.6017 15.8574 11.6017C16.3061 11.6017 16.7369 11.7776 17.0574 12.0916C17.3779 12.4056 17.5626 12.8328 17.5717 13.2814C17.5626 13.73 17.3779 14.1571 17.0574 14.4711C16.7369 14.7851 16.3061 14.961 15.8574 14.961C15.4087 14.961 14.9779 14.7851 14.6574 14.4711C14.3369 14.1571 14.1523 13.73 14.1431 13.2814V13.2814ZM17.5717 34.7099C17.5626 35.1585 17.3779 35.5857 17.0574 35.8997C16.7369 36.2137 16.3061 36.3896 15.8574 36.3896C15.4087 36.3896 14.9779 36.2137 14.6574 35.8997C14.3369 35.5857 14.1523 35.1585 14.1431 34.7099C14.1523 34.2613 14.3369 33.8342 14.6574 33.5202C14.9779 33.2062 15.4087 33.0303 15.8574 33.0303C16.3061 33.0303 16.7369 33.2062 17.0574 33.5202C17.3779 33.8342 17.5626 34.2613 17.5717 34.7099ZM32.1431 17.1742C31.6945 17.1651 31.2674 16.9804 30.9534 16.6599C30.6394 16.3394 30.4635 15.9086 30.4635 15.4599C30.4635 15.0113 30.6394 14.5804 30.9534 14.2599C31.2674 13.9395 31.6945 13.7548 32.1431 13.7457C32.5917 13.7548 33.0189 13.9395 33.3329 14.2599C33.6469 14.5804 33.8228 15.0113 33.8228 15.4599C33.8228 15.9086 33.6469 16.3394 33.3329 16.6599C33.0189 16.9804 32.5917 17.1651 32.1431 17.1742V17.1742Z" fill="#1B2455"/>
</svg>
