<svg width="48" height="48" viewBox="0 0 48 48" fill="none" xmlns="http://www.w3.org/2000/svg">
<circle cx="24" cy="24" r="24" fill="white"/>
<path d="M36.2761 13.2363L34.7618 11.7221C34.7081 11.6689 34.6356 11.6391 34.56 11.6391C34.4845 11.6391 34.412 11.6689 34.3583 11.7221L11.7261 34.3471C11.6729 34.4008 11.6431 34.4733 11.6431 34.5488C11.6431 34.6244 11.6729 34.6969 11.7261 34.7506L13.2404 36.2649C13.3511 36.3756 13.5333 36.3756 13.644 36.2649L36.2725 13.6363C36.3868 13.5292 36.3868 13.3471 36.2761 13.2363ZM16.5725 21.7078C19.4083 21.7078 21.7154 19.4006 21.7154 16.5649C21.7154 13.7292 19.4083 11.4221 16.5725 11.4221C13.7368 11.4221 11.4297 13.7292 11.4297 16.5649C11.4297 19.4006 13.7368 21.7078 16.5725 21.7078ZM16.5725 13.9935C17.9904 13.9935 19.144 15.1471 19.144 16.5649C19.144 17.9828 17.9904 19.1363 16.5725 19.1363C15.1547 19.1363 14.0011 17.9828 14.0011 16.5649C14.0011 15.1471 15.1547 13.9935 16.5725 13.9935ZM31.4297 26.2792C28.594 26.2792 26.2868 28.5863 26.2868 31.4221C26.2868 34.2578 28.594 36.5649 31.4297 36.5649C34.2654 36.5649 36.5725 34.2578 36.5725 31.4221C36.5725 28.5863 34.2654 26.2792 31.4297 26.2792ZM31.4297 33.9935C30.0118 33.9935 28.8583 32.8399 28.8583 31.4221C28.8583 30.0042 30.0118 28.8506 31.4297 28.8506C32.8475 28.8506 34.0011 30.0042 34.0011 31.4221C34.0011 32.8399 32.8475 33.9935 31.4297 33.9935Z" fill="#1B2455"/>
</svg>
