<svg width="110" height="110" viewBox="0 0 110 110" fill="none" xmlns="http://www.w3.org/2000/svg">
<path opacity="0.58" d="M73.0313 79.4687C68.2713 74.7087 61.8223 72.0239 55.0907 72C51.7267 71.988 48.3936 72.6418 45.2834 73.9236C42.1732 75.2054 39.3474 77.09 36.9687 79.4687M106 55C106 61.6974 104.681 68.3292 102.118 74.5169C99.5549 80.7045 95.7982 86.3267 91.0624 91.0624C86.3267 95.7982 80.7045 99.5549 74.5169 102.118C68.3292 104.681 61.6974 106 55 106C48.3026 106 41.6707 104.681 35.4831 102.118C29.2955 99.5549 23.6733 95.7982 18.9376 91.0624C14.2018 86.3267 10.4451 80.7045 7.88214 74.5169C5.31915 68.3292 4 61.6974 4 55C4 41.474 9.3732 28.5019 18.9376 18.9376C28.5019 9.3732 41.474 4 55 4C68.526 4 81.4981 9.3732 91.0624 18.9376C100.627 28.5019 106 41.474 106 55ZM42.25 42.25C42.25 44.596 41.298 46.5 40.125 46.5C38.952 46.5 38 44.596 38 42.25C38 39.904 38.952 38 40.125 38C41.298 38 42.25 39.904 42.25 42.25ZM40.125 42.25H40.1703V42.335H40.125V42.25ZM72 42.25C72 44.596 71.048 46.5 69.875 46.5C68.702 46.5 67.75 44.596 67.75 42.25C67.75 39.904 68.702 38 69.875 38C71.048 38 72 39.904 72 42.25ZM69.875 42.25H69.9203V42.335H69.875V42.25Z" stroke="white" stroke-width="8" stroke-linecap="round" stroke-linejoin="round"/>
</svg>
